<svg width="30" height="30" viewBox="0 0 30 30" fill="none" xmlns="http://www.w3.org/2000/svg">
<g id="Group 17">
<path id="Vector" d="M27 7.00037H23C22.448 7.00037 22 7.44837 22 8.00037C22 8.55237 22.448 9.00037 23 9.00037H27C27.551 9.00037 28 9.44937 28 10.0004V12.0004C28 12.5514 27.551 13.0004 27 13.0004H3C2.449 13.0004 2 12.5514 2 12.0004V10.0004C2 9.44937 2.449 9.00037 3 9.00037H7C7.552 9.00037 8 8.55237 8 8.00037C8 7.44837 7.552 7.00037 7 7.00037H3C1.346 7.00037 0 8.34637 0 10.0004V12.0004C0 13.3404 0.889 14.4644 2.104 14.8484L3.744 27.1494C3.957 28.7484 5.387 30.0004 7 30.0004H23C24.613 30.0004 26.043 28.7484 26.255 27.1504L27.895 14.8484C29.111 14.4644 30 13.3404 30 12.0004V10.0004C30 8.34637 28.654 7.00037 27 7.00037ZM24.273 26.8864C24.194 27.4794 23.599 28.0004 23 28.0004H7C6.401 28.0004 5.806 27.4794 5.727 26.8854L4.142 15.0004H25.858L24.273 26.8864Z" fill="black"/>
<path id="Vector_2" d="M8.628 11.9294C8.75 11.9774 8.876 12.0004 9 12.0004C9.397 12.0004 9.772 11.7624 9.929 11.3714L13.929 1.37137C14.134 0.858368 13.885 0.276368 13.372 0.0713683C12.856 -0.132632 12.277 0.115368 12.072 0.628368L8.072 10.6284C7.866 11.1424 8.116 11.7234 8.628 11.9294ZM20.071 11.3724C20.228 11.7624 20.604 12.0004 21 12.0004C21.124 12.0004 21.249 11.9774 21.371 11.9284C21.884 11.7224 22.133 11.1414 21.928 10.6284L17.928 0.628368C17.723 0.116368 17.142 -0.130632 16.628 0.0713683C16.115 0.277368 15.866 0.858368 16.071 1.37137L20.071 11.3724ZM15 25.0004C15.552 25.0004 16 24.5524 16 24.0004V19.0004C16 18.4484 15.552 18.0004 15 18.0004C14.448 18.0004 14 18.4484 14 19.0004V24.0004C14 24.5524 14.448 25.0004 15 25.0004ZM20 25.0004C20.552 25.0004 21 24.5524 21 24.0004V19.0004C21 18.4484 20.552 18.0004 20 18.0004C19.448 18.0004 19 18.4484 19 19.0004V24.0004C19 24.5524 19.448 25.0004 20 25.0004ZM10 25.0004C10.552 25.0004 11 24.5524 11 24.0004V19.0004C11 18.4484 10.552 18.0004 10 18.0004C9.448 18.0004 9 18.4484 9 19.0004V24.0004C9 24.5524 9.448 25.0004 10 25.0004Z" fill="black"/>
</g>
</svg>
