<svg width="70" height="30" viewBox="0 0 70 30" fill="none" xmlns="http://www.w3.org/2000/svg">
<g id="Group 2">
<path id="Vector" d="M54.1111 7.82605H50.3333C50.1111 7.82605 49.8889 8.19872 49.7778 8.57139L48.2222 24.9689C48.2222 25.3416 48.3333 25.5279 48.5556 25.5279H50.5555C50.7778 25.5279 50.8889 25.3416 50.8889 24.9689L51.3333 20.3105C51.3333 19.9379 51.5555 19.5652 51.8889 19.5652H53.1111C55.6667 19.5652 57.1111 17.5155 57.4444 13.4161C57.6667 11.7391 57.4444 10.2484 57 9.31673C56.3333 8.38505 55.3333 7.82605 54.1111 7.82605ZM54.5555 13.9751C54.3333 16.2111 53.3333 16.2111 52.3333 16.2111H51.6667L52.1111 11.9254C52.1111 11.7391 52.2222 11.5528 52.4444 11.5528H52.6667C53.3333 11.5528 54 11.5528 54.3333 12.2981C54.5556 12.4844 54.5555 13.0434 54.5555 13.9751Z" fill="#139AD6"/>
<path id="Vector_2" d="M26.8889 7.82605H23.1111C22.8889 7.82605 22.6667 8.19872 22.5556 8.57139L21 24.9689C21 25.3416 21.1111 25.5279 21.3333 25.5279H23.1111C23.3333 25.5279 23.5556 25.1552 23.6667 24.7826L24.1111 20.3105C24.1111 19.9379 24.3333 19.5652 24.6667 19.5652H25.8889C28.4444 19.5652 29.8889 17.5155 30.2222 13.4161C30.4444 11.7391 30.2222 10.2484 29.7778 9.31673C29.1111 8.38505 28.2222 7.82605 26.8889 7.82605ZM27.3333 13.9751C27.1111 16.2111 26.1111 16.2111 25.1111 16.2111H24.5556L25 11.9254C25 11.7391 25.1111 11.5528 25.3333 11.5528H25.5556C26.2222 11.5528 26.8889 11.5528 27.2222 12.2981C27.3333 12.4844 27.4444 13.0434 27.3333 13.9751ZM38.3333 13.7888H36.5556C36.4444 13.7888 36.2222 13.9751 36.2222 14.1615L36.1111 15.0931L36 14.7205C35.5556 13.7888 34.7778 13.4161 33.8889 13.4161C31.8889 13.4161 30.1111 16.0248 29.7778 19.5652C29.5556 21.4285 29.8889 23.1056 30.4444 24.2236C31 25.3416 31.7778 25.7142 32.7778 25.7142C34.4444 25.7142 35.3333 24.0372 35.3333 24.0372L35.2222 24.9689C35.2222 25.3416 35.3333 25.5279 35.5556 25.5279H37.2222C37.4444 25.5279 37.6667 25.1552 37.7778 24.7826L38.7778 14.3478C38.6667 14.1615 38.4444 13.7888 38.3333 13.7888ZM35.7778 19.7515C35.5556 21.4285 34.7778 22.7329 33.6667 22.7329C33.1111 22.7329 32.6667 22.3602 32.4444 21.9875C32.2222 21.4285 32.1111 20.6832 32.1111 19.7515C32.2222 18.0745 33.1111 16.7701 34.1111 16.7701C34.6667 16.7701 35 17.1428 35.3333 17.5155C35.6667 18.0745 35.7778 19.0062 35.7778 19.7515Z" fill="#263B80"/>
<path id="Vector_3" d="M65.4444 13.7888H63.6667C63.5556 13.7888 63.3333 13.9751 63.3333 14.1615L63.2222 15.0932L63.1111 14.7205C62.6667 13.7888 61.8889 13.4161 61 13.4161C59 13.4161 57.2222 16.0248 56.8889 19.5652C56.6667 21.4286 57 23.1056 57.5556 24.2236C58.1111 25.3416 58.8889 25.7143 59.8889 25.7143C61.5556 25.7143 62.4444 24.0373 62.4444 24.0373L62.3333 24.9689C62.3333 25.3416 62.4444 25.5279 62.6667 25.5279H64.3333C64.5556 25.5279 64.7778 25.1553 64.8889 24.7826L65.8889 14.3478C65.7778 14.1615 65.6667 13.7888 65.4444 13.7888ZM62.8889 19.7515C62.6667 21.4286 61.8889 22.7329 60.7778 22.7329C60.2222 22.7329 59.7778 22.3602 59.5555 21.9876C59.3333 21.4286 59.2222 20.6832 59.2222 19.7515C59.3333 18.0745 60.2222 16.7702 61.2222 16.7702C61.7778 16.7702 62.1111 17.1428 62.4444 17.5155C62.8889 18.0745 63 19.0062 62.8889 19.7515Z" fill="#139AD6"/>
<path id="Vector_4" d="M48 13.7888H46.1111C45.8889 13.7888 45.7778 13.9752 45.6667 14.1615L43.2222 20.4969L42.1111 14.5342C42 14.1615 41.8889 13.9752 41.5556 13.9752H39.7778C39.5556 13.9752 39.4444 14.3478 39.4444 14.7205L41.4444 24.5963L39.5556 29.0683C39.4444 29.441 39.5556 30 39.7778 30H41.5556C41.7778 30 41.8889 29.8137 42 29.6273L48.1111 14.9068C48.4444 14.3478 48.2222 13.7888 48 13.7888Z" fill="#263B80"/>
<path id="Vector_5" d="M67.5556 8.3851L66 25.1553C66 25.528 66.1111 25.7143 66.3333 25.7143H67.8889C68.1111 25.7143 68.3333 25.3416 68.4444 24.969L70 8.57144C70 8.19877 69.8889 8.01243 69.6667 8.01243H67.8889C67.7778 7.8261 67.6667 8.01243 67.5556 8.3851Z" fill="#139AD6"/>
<path id="Vector_6" d="M12.7778 2.23603C12 0.745343 10.5556 0 8.55555 0H3C2.66667 0 2.33333 0.559007 2.22222 1.11801L0 25.528C0 26.087 0.222222 26.4596 0.444444 26.4596H3.88889L4.77778 17.3292V17.7019C4.88889 17.1429 5.22222 16.5839 5.55556 16.5839H7.22222C10.4444 16.5839 12.8889 14.3478 13.6667 8.19876V7.63975C13.5556 7.63975 13.5556 7.63975 13.6667 7.63975C13.7778 5.21739 13.5556 3.72671 12.7778 2.23603Z" fill="#263B80"/>
<path id="Vector_7" d="M13.5555 7.63977V8.19878C12.7778 14.5342 10.3333 16.5839 7.1111 16.5839H5.44443C5.1111 16.5839 4.77776 17.1429 4.66665 17.7019L3.55554 29.0683C3.55554 29.441 3.66665 29.8137 3.99999 29.8137H6.88888C7.22221 29.8137 7.55554 29.441 7.55554 28.882V28.6957L8.1111 22.9193V22.5466C8.1111 21.9876 8.44443 21.6149 8.77776 21.6149H9.22221C12 21.6149 14.2222 19.7516 14.7778 14.1615C15 11.9255 14.8889 9.8758 14.2222 8.57145C14.1111 8.19878 13.8889 7.82611 13.5555 7.63977Z" fill="#139AD6"/>
<path id="Vector_8" d="M12.7778 7.08073C12.6667 7.08073 12.5556 6.8944 12.4445 6.8944C12.3333 6.8944 12.2222 6.8944 12.1111 6.70806C11.6667 6.52173 11.2222 6.52173 10.6667 6.52173H6.33334C6.22223 6.52173 6.11112 6.52173 6.00001 6.70806C5.77779 6.8944 5.66667 7.26707 5.66667 7.63974L4.77779 17.3292V17.7019C4.8889 17.1428 5.22223 16.5838 5.55556 16.5838H7.22223C10.4445 16.5838 12.8889 14.3478 13.6667 8.19875C13.6667 8.01241 13.6667 7.82608 13.7778 7.63974C13.5556 7.45341 13.4445 7.26707 13.2222 7.26707C12.8889 7.08073 12.8889 7.08073 12.7778 7.08073Z" fill="#232C65"/>
</g>
</svg>
