<svg width="30" height="30" viewBox="0 0 30 30" fill="none" xmlns="http://www.w3.org/2000/svg">
<path id="Vector" d="M14.9999 23.3869L22.9317 27.739L21.4168 18.521L27.8338 11.9927L18.9658 10.6479L14.9999 2.261L11.0339 10.6479L2.16588 11.9927L8.58287 18.521L7.06803 27.739L14.9999 23.3869ZM8.0759 29.7399C7.01712 30.3208 5.70757 29.896 5.15094 28.7909C4.92928 28.3509 4.85279 27.8469 4.93331 27.3569L6.25567 19.3102L0.654072 13.6115C-0.202499 12.74 -0.220026 11.3089 0.614925 10.4149C0.947406 10.0589 1.38306 9.82723 1.85443 9.75575L9.59566 8.58174L13.0576 1.26058C13.587 0.141063 14.8857 -0.318584 15.9584 0.233932C16.3855 0.453946 16.7313 0.814783 16.9421 1.26058L20.4041 8.58174L28.1453 9.75575C29.329 9.93527 30.1492 11.0823 29.9772 12.3178C29.9087 12.8098 29.6867 13.2645 29.3456 13.6115L23.744 19.3102L25.0664 27.3569C25.2686 28.5874 24.4768 29.756 23.2978 29.967C22.8284 30.051 22.3454 29.9712 21.9238 29.7399L14.9999 25.9407L8.0759 29.7399Z" fill="black"/>
</svg>
