<svg width="10" height="10" viewBox="0 0 10 10" fill="none" xmlns="http://www.w3.org/2000/svg">
<g clip-path="url(#clip0_197_224)">
<path d="M9.01563 4.19531H5.9375L4.98438 1.22656L4.03125 4.19531H0.953125L3.45313 6.00781L2.5 8.96094L5 7.13281L7.5 8.96094L6.51563 6.00781L9.01563 4.19531Z" fill="#FAD97F"/>
<path d="M10 3.86719H6.1875L5 0.210938L3.8125 3.86719H0L3.07812 6.11719L1.89062 9.77344L5 7.52344L8.09375 9.78906L6.90625 6.13281L10 3.86719ZM5 7.13281L2.5 8.96094L3.45312 6.00781L0.953125 4.19531H4.03125L4.98438 1.22656L5.9375 4.19531H9.01562L6.51562 6.00781L7.5 8.96094L5 7.13281Z" fill="black"/>
</g>
<defs>
<clipPath id="clip0_197_224">
<rect width="10" height="10" fill="white"/>
</clipPath>
</defs>
</svg>
