<svg width="15" height="15" viewBox="0 0 15 15" fill="none" xmlns="http://www.w3.org/2000/svg">
<g clip-path="url(#clip0_14_165)">
<path d="M13.5234 6.29297H8.90625L7.47656 1.83984L6.04688 6.29297H1.42969L5.17969 9.01172L3.75 13.4414L7.5 10.6992L11.25 13.4414L9.77344 9.01172L13.5234 6.29297Z" fill="#FAD97F"/>
<path d="M15 5.80078H9.28125L7.5 0.316406L5.71875 5.80078H0L4.61719 9.17578L2.83594 14.6602L7.5 11.2852L12.1406 14.6836L10.3594 9.19922L15 5.80078ZM7.5 10.6992L3.75 13.4414L5.17969 9.01172L1.42969 6.29297H6.04688L7.47656 1.83984L8.90625 6.29297H13.5234L9.77344 9.01172L11.25 13.4414L7.5 10.6992Z" fill="black"/>
</g>
<defs>
<clipPath id="clip0_14_165">
<rect width="15" height="15" fill="white"/>
</clipPath>
</defs>
</svg>
